<svg xmlns="http://www.w3.org/2000/svg" viewBox="0 0 64 64">
  <defs>
    <linearGradient id="g" x1="0" y1="0" x2="1" y2="1">
      <stop offset="0" stop-color="#1565c0"/>
      <stop offset="1" stop-color="#2e7d32"/>
    </linearGradient>
  </defs>
  <rect width="64" height="64" rx="14" fill="url(#g)"/>
  <path fill="#fff" d="M32 10c-7.18 0-13 5.82-13 13 0 4.3 2.08 8.12 5.3 10.5L21 40h22l-3.3-6.5A13 13 0 0 0 45 23c0-7.18-5.82-13-13-13zm-2.5 18v-5h5v5h-5zm2.5-10a7.5 7.5 0 0 1 7.5 7.5H24.5A7.5 7.5 0 0 1 32 18zm-10 27h20l2.5 9H19.5l2.5-9z"/>
</svg>